<?xml version="1.0" standalone="no"?>
<!DOCTYPE svg PUBLIC "-//W3C//DTD SVG 20010904//EN"
 "http://www.w3.org/TR/2001/REC-SVG-20010904/DTD/svg10.dtd">
<svg version="1.0" xmlns="http://www.w3.org/2000/svg"
 width="512.000000pt" height="512.000000pt" viewBox="0 0 512.000000 512.000000"
 preserveAspectRatio="xMidYMid meet">

<g transform="translate(0.000000,512.000000) scale(0.100000,-0.100000)"
fill="#f6cbd1" stroke="none">
<path d="M2380 4949 c-192 -25 -323 -65 -505 -154 -169 -83 -290 -172 -423
-309 -468 -484 -572 -1187 -262 -1784 207 -399 566 -679 1013 -791 l112 -27 0
-350 0 -349 -322 -3 -323 -2 0 -240 0 -240 323 -2 322 -3 3 -267 2 -268 240 0
240 0 2 268 3 267 323 3 322 2 0 240 0 240 -322 2 -323 3 0 349 0 349 110 27
c579 143 1010 576 1151 1154 99 410 17 849 -227 1216 -81 122 -281 323 -404
407 -93 63 -235 138 -327 173 -213 82 -506 118 -728 89z m361 -494 c528 -92
911 -578 875 -1108 -23 -333 -208 -648 -485 -825 -461 -295 -1083 -185 -1412
251 -277 367 -289 866 -29 1241 59 86 199 224 280 277 116 77 254 134 380 158
30 6 64 13 75 15 50 10 240 5 316 -9z"/>
</g>
</svg>
