<svg version="1.0" xmlns="http://www.w3.org/2000/svg" width="1024.000000pt" height="1024.000000pt" viewBox="0 0 1024.000000 1024.000000" preserveAspectRatio="xMidYMid meet">

<g transform="translate(0.000000,1024.000000) scale(0.100000,-0.100000)" fill="#70acc7" stroke="none">
<path d="M2420 8464 c-588 -55 -1106 -289 -1508 -679 -380 -368 -618 -816 -711 -1333 -114 -634 38 -1239 477 -1907 368 -558 990 -1188 1767 -1789 711 -551 1693 -1171 2529 -1600 l149 -76 146 76 c1121 587 2203 1305 3007 1996 1262 1084 1866 2105 1795 3035 -26 342 -101 620 -246 918 -119 243 -267 447 -470 650 -483 483 -1129 737 -1810 712 -426 -16 -772 -103 -1130 -285 -296 -151 -535 -332 -831 -627 -262 -262 -402 -429 -844 -1011 -431 -566 -646 -823 -856 -1023 -377 -360 -712 -547 -1139 -634 -96 -19 -140 -22 -355 -22 -269 1 -338 9 -525 66 -172 53 -376 159 -528 276 -85 65 -237 213 -307 298 -180 220 -312 503 -355 763 -27 163 -17 409 23 564 66 253 191 482 392 713 395 457 1200 735 1777 615 465 -97 905 -441 1113 -871 22 -46 56 -134 76 -196 42 -130 102 -257 124 -261 11 -2 29 26 58 86 49 102 96 162 146 186 72 34 155 11 196 -56 11 -18 34 -77 51 -130 38 -118 50 -138 73 -119 25 21 39 88 39 191 0 196 -69 342 -178 371 -51 14 -197 6 -251 -14 l-41 -15 -29 61 c-84 177 -198 338 -349 495 -168 176 -349 307 -557 406 -247 118 -439 165 -703 170 -93 2 -190 2 -215 0z m5530 -299 c471 -71 912 -299 1240 -642 390 -406 599 -922 602 -1483 2 -541 -239 -1093 -750 -1719 -638 -779 -1709 -1633 -3067 -2443 -264 -157 -676 -390 -795 -448 l-66 -32 -134 67 c-853 427 -1887 1096 -2623 1697 -525 428 -995 901 -1297 1303 -400 533 -608 1013 -652 1503 -18 208 8 450 72 657 31 99 38 99 22 -2 -19 -126 -10 -397 17 -531 109 -524 448 -991 924 -1272 195 -116 447 -201 682 -231 149 -19 465 -17 605 4 490 75 909 298 1338 711 233 225 444 475 832 986 489 645 683 876 935 1118 491 470 995 716 1580 771 132 13 404 5 535 -14z"/>
<path d="M1990 7999 c-84 -13 -201 -52 -270 -91 -48 -27 -180 -124 -180 -133 0 -1 33 14 73 34 137 69 333 101 490 81 243 -30 425 -142 505 -308 45 -95 55 -213 24 -308 -87 -274 -408 -390 -573 -207 -76 84 -79 182 -10 317 24 46 41 88 37 94 -17 28 -95 -34 -141 -112 -14 -24 -35 -81 -46 -127 -24 -92 -22 -179 5 -243 24 -58 100 -130 169 -162 53 -24 77 -29 172 -32 122 -4 201 11 289 55 215 108 331 286 329 503 -3 292 -214 539 -531 621 -91 24 -251 32 -342 18z"/>
<path d="M3659 6281 c-13 -11 -52 -47 -87 -81 -66 -65 -139 -105 -209 -116 -27 -4 -81 2 -151 16 -86 17 -114 20 -131 11 -70 -38 50 -165 200 -212 75 -24 179 -24 245 -2 70 24 154 110 183 188 56 148 28 258 -50 196z"/>
<path d="M2250 5895 c-14 -7 -52 -44 -86 -82 -111 -124 -209 -154 -391 -119 -95 19 -143 12 -143 -20 0 -33 50 -102 100 -139 115 -84 239 -102 346 -50 114 56 212 185 235 311 8 41 7 61 -3 81 -16 33 -26 36 -58 18z"/>
<path d="M2990 5314 c-107 -46 -150 -161 -89 -238 28 -36 80 -36 108 0 12 15 21 32 21 38 0 6 21 38 45 70 27 36 45 70 45 86 0 55 -59 75 -130 44z"/>
</g>
</svg>
