<?xml version="1.0" standalone="no"?>
<!DOCTYPE svg PUBLIC "-//W3C//DTD SVG 20010904//EN"
 "http://www.w3.org/TR/2001/REC-SVG-20010904/DTD/svg10.dtd">
<svg version="1.0" xmlns="http://www.w3.org/2000/svg"
 width="512.000000pt" height="512.000000pt" viewBox="0 0 512.000000 512.000000"
 preserveAspectRatio="xMidYMid meet">

<g transform="translate(0.000000,512.000000) scale(0.100000,-0.100000)"
fill="#70acc7" stroke="none">
<path d="M3180 4805 l0 -315 432 0 433 0 -552 -552 -551 -551 -73 47 c-550
352 -1252 391 -1827 102 -199 -100 -335 -198 -493 -355 -210 -211 -355 -443
-448 -717 -178 -526 -112 -1103 180 -1581 139 -226 376 -463 602 -602 478
-292 1055 -358 1581 -180 274 93 506 238 717 448 210 211 355 443 448 717 110
324 129 663 56 1004 -39 184 -140 424 -251 599 l-47 73 551 551 552 552 0
-433 0 -432 315 0 315 0 0 970 0 970 -970 0 -970 0 0 -315z m-1060 -1730 c233
-52 430 -158 601 -322 183 -176 301 -390 356 -643 25 -118 25 -372 0 -490 -51
-237 -158 -438 -324 -611 -366 -380 -924 -485 -1408 -264 -248 113 -487 352
-600 600 -212 465 -124 1002 225 1369 192 203 411 317 715 375 75 15 347 6
435 -14z"/>
</g>
</svg>
